<svg xmlns="http://www.w3.org/2000/svg" xmlns:xlink="http://www.w3.org/1999/xlink" xml:space="preserve" width="1031.559" height="1031.559" viewBox="0 0 272.933 272.933"><defs><linearGradient id="a"><stop offset="0" style="stop-color:#f79a1d;stop-opacity:1"/><stop offset=".6" style="stop-color:#f7911d;stop-opacity:1"/><stop offset="1" style="stop-color:#7c5cff;stop-opacity:1"/></linearGradient><linearGradient id="b"><stop offset="0" style="stop-color:#f7a41d;stop-opacity:1"/><stop offset="1" style="stop-color:#f7911d;stop-opacity:1"/></linearGradient><linearGradient xlink:href="#a" id="c" x1="-2117.348" x2="-1924.356" y1="2121.777" y2="2314.77" gradientTransform="translate(-90.583 896.083)" gradientUnits="userSpaceOnUse"/><linearGradient xlink:href="#b" id="d" x1="-2004.674" x2="-2004.674" y1="1833.014" y2="2008.014" gradientTransform="translate(-106.76 1193.843)" gradientUnits="userSpaceOnUse"/></defs><g transform="translate(2247.902 -2977.89)"><circle cx="-2111.435" cy="3114.356" r="128" style="fill:#1a1a1a;fill-opacity:1;stroke:#f9c212;stroke-width:16.9333;stroke-dasharray:none;stroke-opacity:1"/><path d="m-2198.935 3071.138 13.294 1.492 27.242 3.582 13.294 1.682v-.218c-5.68-1.345-11.436-4.338-16.781-6.663-1.67-.727-4.807-1.746-4.73-4.015.132-3.95 6.755-7.06 9.742-8.553 8.02-4.011 16.993-6.383 25.716-8.32 3.687-.82 7.569-1.998 11.333-2.305l-1.506 24.19-3.962 62.11-1.724 26.807-13.076-9.67-5.884-4.06c7.06 12.682 15.778 24.756 23.827 36.83 2.414 3.621 4.778 7.276 7.192 10.897 1.085 1.627 2.088 3.803 3.632 5.013 7.433-11.019 14.604-22.216 21.869-33.344 4.09-6.265 9.148-12.634 12.347-19.396l-5.884 4.163-12.858 9.567-1.942-30.293-5.25-82.814c12.353 1.595 25.298 5.358 36.612 10.491 2.954 1.34 5.772 3.11 8.063 5.418.855.861 2.014 1.96 2.067 3.269.09 2.204-3.075 3.234-4.681 3.922-5.441 2.332-11.23 5.39-16.999 6.756v.218l10.025-1.246 19.614-2.643 16.78-2.15 7.628-.935c-16.7-18.064-41.509-27.42-64.29-35.014-5.205-1.735-10.466-3.273-15.691-4.942-2.253-.72-5.251-2.24-7.628-2.186-1.607.036-3.49.965-5.012 1.461-3.189 1.04-6.4 2.011-9.59 3.051-10.961 3.573-21.86 7.293-32.471 11.821-10.972 4.682-21.773 10.082-31.164 17.529-2.824 2.239-7.612 5.193-9.154 8.498" style="fill:#f9c212;fill-opacity:1;stroke:none;stroke-width:.823683"/><circle cx="-2111.435" cy="3114.356" r="128" style="fill:#0b0d12;fill-opacity:1;stroke:url(#c);stroke-width:16.9333;stroke-dasharray:none;stroke-opacity:1"/><path d="m-2198.935 3071.138 13.294 1.492 27.242 3.582 13.294 1.682v-.218c-5.68-1.345-11.436-4.338-16.781-6.663-1.67-.727-4.807-1.746-4.73-4.015.132-3.95 6.755-7.06 9.742-8.553 8.02-4.011 16.993-6.383 25.716-8.32 3.687-.82 7.569-1.998 11.333-2.305l-1.506 24.19-3.962 62.11-1.724 26.807-13.076-9.67-5.884-4.06c7.06 12.682 15.778 24.756 23.827 36.83 2.414 3.621 4.778 7.276 7.192 10.897 1.085 1.627 2.088 3.803 3.632 5.013 7.433-11.019 14.604-22.216 21.869-33.344 4.09-6.265 9.148-12.634 12.347-19.396l-5.884 4.163-12.858 9.567-1.942-30.293-5.25-82.814c12.353 1.595 25.298 5.358 36.612 10.491 2.954 1.34 5.772 3.11 8.063 5.418.855.861 2.014 1.96 2.067 3.269.09 2.204-3.075 3.234-4.681 3.922-5.441 2.332-11.23 5.39-16.999 6.756v.218l10.025-1.246 19.614-2.643 16.78-2.15 7.628-.935c-16.7-18.064-41.509-27.42-64.29-35.014-5.205-1.735-10.466-3.273-15.691-4.942-2.253-.72-5.251-2.24-7.628-2.186-1.607.036-3.49.965-5.012 1.461-3.189 1.04-6.4 2.011-9.59 3.051-10.961 3.573-21.86 7.293-32.471 11.821-10.972 4.682-21.773 10.082-31.164 17.529-2.824 2.239-7.612 5.193-9.154 8.498" style="fill:url(#d);fill-opacity:1;stroke:none;stroke-width:.823683"/></g></svg>